<svg width="32" height="32" viewBox="0 0 32 32" fill="none" xmlns="http://www.w3.org/2000/svg">
  <rect width="32" height="32" rx="8" fill="url(#gradient)"/>
  <path d="M16 8C16 8 14.5 8.5 14.5 10.5C14.5 12.5 16 13 16 13M16 8C16 8 17.5 8.5 17.5 10.5C17.5 12.5 16 13 16 13M16 8V6M16 13C14.3431 13 13 14.3431 13 16C13 17.6569 14.3431 19 16 19C17.6569 19 19 17.6569 19 16C19 14.3431 17.6569 13 16 13ZM16 19V21C16 22.1046 15.1046 23 14 23H18C18 23 18 22.1046 18 21V19M16 6H17M16 6H15M22 16H23M9 16H10M21.364 10.636L22.071 9.929M9.929 22.071L10.636 21.364M21.364 21.364L22.071 22.071M9.929 9.929L10.636 10.636" stroke="white" stroke-width="1.5" stroke-linecap="round" stroke-linejoin="round"/>
  <defs>
    <linearGradient id="gradient" x1="0" y1="0" x2="32" y2="32" gradientUnits="userSpaceOnUse">
      <stop stop-color="#2563EB"/>
      <stop offset="1" stop-color="#1D4ED8"/>
    </linearGradient>
  </defs>
</svg>
